<svg xmlns="http://www.w3.org/2000/svg" xmlns:xlink="http://www.w3.org/1999/xlink" width="783.718" height="80.357" viewBox="0 0 783.718 80.357">
  <defs>
    <linearGradient id="linear-gradient" x1="0.5" x2="0.5" y2="1" gradientUnits="objectBoundingBox">
      <stop offset="0" stop-color="#5a4bda"/>
      <stop offset="1" stop-color="#eb427e"/>
    </linearGradient>
  </defs>
  <g id="Group_20365" data-name="Group 20365" transform="translate(0.501 0.055)">
    <path id="Union_10" data-name="Union 10" d="M-12627.87,18808.154h1a29.416,29.416,0,0,0,.127,2.941l-.991.113A30.4,30.4,0,0,1-12627.87,18808.154Zm.1-3.031c.066-1.006.17-2.021.3-3.018l.991.133c-.132.973-.231,1.969-.3,2.951Zm.808-6.01c.2-1,.443-1.988.713-2.951l.963.273c-.26.936-.5,1.908-.7,2.881Zm1.647-5.84c.354-.959.746-1.9,1.166-2.809l.906.42c-.41.883-.788,1.8-1.133,2.732Zm2.568-5.51c.51-.883,1.067-1.742,1.647-2.562l.813.58c-.562.793-1.1,1.629-1.591,2.482Zm3.531-4.957a30.1,30.1,0,0,1,2.11-2.2l.685.727a28.951,28.951,0,0,0-2.039,2.129Zm4.424-4.182c.793-.619,1.633-1.205,2.492-1.752l.534.844c-.831.529-1.644,1.1-2.413,1.7Zm5.137-3.264c.883-.457,1.813-.887,2.757-1.279l.382.926c-.92.383-1.822.8-2.682,1.242Zm5.6-2.332c.944-.307,1.921-.59,2.913-.844l.25.971c-.973.246-1.931.525-2.852.822Zm5.873-1.5c.973-.18,1.978-.34,2.993-.473l.127.992c-1,.127-1.982.287-2.932.467Zm6-.789c.982-.08,2-.137,3.017-.174l.033,1c-1,.039-2,.1-2.97.17Zm703.291.785v-1h3.026v1Zm-5.972,0v-1h3v1Zm-6.006,0v-1h3v1Zm-6,0v-1h3v1Zm-6.01,0v-1h3.007v1Zm-5.991,0v-1h2.983v1Zm-6.015,0v-1h3.013v1Zm-5.986,0v-1h2.993v1Zm-6,0v-1h2.988v1Zm-6.01,0v-1h3.008v1Zm-6,0v-1h3.017v1Zm-5.991,0v-1h3.008v1Zm-6,0v-1h3v1Zm-6,0v-1h2.993v1Zm-6,0v-1h2.993v1Zm-6,0v-1h2.989v1Zm-6,0v-1h2.988v1Zm-6,0v-1h2.988v1Zm-6,0v-1h2.993v1Zm-6,0v-1h3v1Zm-6,0v-1h3v1Zm-6,0v-1h3v1Zm-6,0v-1h3.008v1Zm-6,0v-1h3.007v1Zm-6,0v-1h3.008v1Zm-6,0v-1h3v1Zm-6,0v-1h3v1Zm-6,0v-1h3v1Zm-6,0v-1h3v1Zm-6,0v-1h3v1Zm-6,0v-1h3v1Zm-6,0v-1h3.007v1Zm-6,0v-1h3v1Zm-6,0v-1h3v1Zm-6,0v-1h3v1Zm-6,0v-1h3v1Zm-6,0v-1h3v1Zm-6,0v-1h3v1Zm-6,0v-1h3v1Zm-6,0v-1h3v1Zm-6,0v-1h3v1Zm-6,0v-1h3v1Zm-6,0v-1h3.008v1Zm-6,0v-1h3v1Zm-6,0v-1h3v1Zm-6,0v-1h3v1Zm-6,0v-1h3v1Zm-6,0v-1h3v1Zm-6,0v-1h3v1Zm-6,0v-1h3v1Zm-6,0v-1h3.008v1Zm-6,0v-1h3.007v1Zm-6,0v-1h3v1Zm-6,0v-1h3v1Zm-6,0v-1h3v1Zm-6,0v-1h2.993v1Zm-6,0v-1h2.989v1Zm-6,0v-1h2.988v1Zm-6,0v-1h2.988v1Zm-6,0v-1h2.988v1Zm-6,0v-1h2.993v1Zm-6,0v-1h2.993v1Zm-6.006,0v-1h3v1Zm-6,0v-1h3.008v1Zm-6,0v-1h3.017v1Zm-6,0v-1h3v1Zm-5.99,0v-1h2.983v1Zm-6.015,0v-1h3v1Zm-6,0v-1h3.012v1Zm-6,0v-1h3v1Zm-5.991,0v-1h3.008v1Zm-6.01,0v-1h3v1Zm-6,0v-1h3v1Zm-6,0v-1h3.013v1Zm-4.721,0h-2.492v-1h4.22v1Zm-8.493,0v-1h3v1Zm-6.015,0v-1h3.013v1Zm-6,0v-1h3.007v1Zm-6,0v-1h3v1Zm-6,0v-1h3v1Zm-6,0v-1h3v1Zm-6,0v-1h3v1Zm-6,0v-1h3v1Zm-6,0v-1h3v1Zm-6,0v-1h3v1Zm-6,0v-1h3v1Zm-6,0v-1h3v1Zm-6,0v-1h3v1Zm-6,0v-1h3v1Zm-6,0v-1h3v1Zm-6,0v-1h3v1Zm-6,0v-1h3v1Zm-6,0v-1h3v1Zm-6,0v-1h3v1Zm-6,0v-1h3v1Zm-6,0v-1h3v1Zm-6,0v-1h3v1Zm-6,0v-1h3v1Zm-6,0v-1h3v1Zm-6,0v-1h3v1Zm-6,0v-1h3v1Zm-6,0v-1h3v1Zm-6,0v-1h3v1Zm-6,0v-1h3v1Zm-6,0v-1h3v1Zm-6,0v-1h3v1Zm-6,0v-1h3v1Zm-6,0v-1h3v1Zm-6,0v-1h3v1Zm-6,0v-1h3v1Zm-6,0v-1h3v1Zm-6,0v-1h3v1Zm-6,0v-1h3v1Zm-6,0v-1h3v1Zm-6.011,0v-1h3v1Zm-6,0v-1h3.008v1Zm-6,0v-1h3.007v1Zm703.248-1.045c1.006-.033,2.007-.09,2.975-.17l.08,1c-.982.074-2,.131-3.017.17Zm5.93-.48c1-.127,1.987-.283,2.937-.463l.184.982c-.968.184-1.973.344-2.988.477Zm5.835-1.1c.973-.246,1.931-.525,2.847-.826l.316.953c-.944.307-1.926.59-2.917.84Zm5.628-1.852c.92-.383,1.822-.8,2.681-1.246l.458.893c-.883.453-1.812.883-2.757,1.273Zm5.245-2.715c.835-.527,1.647-1.1,2.417-1.7l.613.795c-.793.613-1.634,1.2-2.492,1.746Zm4.659-3.611c.713-.676,1.4-1.389,2.039-2.129l.756.656c-.666.766-1.374,1.506-2.11,2.2Zm3.861-4.447c.567-.793,1.1-1.633,1.6-2.488l.869.506c-.515.879-1.067,1.742-1.647,2.559Zm2.961-5.107c.41-.883.788-1.8,1.133-2.734l.939.35c-.354.959-.746,1.9-1.166,2.8Zm2.039-5.547c.265-.936.5-1.908.7-2.885l.982.2c-.2,1-.443,1.992-.718,2.949Zm1.194-5.8c.132-.977.231-1.969.3-2.955l1,.066c-.066,1.01-.17,2.025-.3,3.021Zm.4-5.92c0-1.812-.127-2.928-.127-2.937l.991-.113a30.316,30.316,0,0,1,.137,3.051Z" transform="translate(12627.369 -18730.906)" fill="url(#linear-gradient)"/>
  </g>
</svg>
