<svg id="quote_up" data-name="quote up" xmlns="http://www.w3.org/2000/svg" width="46.998" height="36.357" viewBox="0 0 46.998 36.357">
  <g id="Group_9214" data-name="Group 9214" transform="translate(0 0)">
    <path id="Rectangle_181" data-name="Rectangle 181" d="M0,0H0A10.641,10.641,0,0,1,10.641,10.641V20.4a0,0,0,0,1,0,0H0a0,0,0,0,1,0,0V0A0,0,0,0,1,0,0Z" fill="#0084CB"/>
    <rect id="Rectangle_182" data-name="Rectangle 182" width="19.509" height="21.282" rx="5" transform="translate(0 15.075)" fill="#0084CB"/>
  </g>
  <g id="Group_9250" data-name="Group 9250" transform="translate(27.489 0)">
    <path id="Rectangle_181-2" data-name="Rectangle 181" d="M0,0H0A10.641,10.641,0,0,1,10.641,10.641V20.4a0,0,0,0,1,0,0H0a0,0,0,0,1,0,0V0A0,0,0,0,1,0,0Z" transform="translate(0)" fill="#0084CB"/>
    <rect id="Rectangle_182-2" data-name="Rectangle 182" width="19.509" height="21.282" rx="5" transform="translate(0 15.075)" fill="#0084CB"/>
  </g>
</svg>
